<svg xmlns="http://www.w3.org/2000/svg" version="1.1" xmlns:xlink="http://www.w3.org/1999/xlink" xml:space="preserve" width="512" height="512" style="shape-rendering:geometricPrecision; text-rendering:geometricPrecision; image-rendering:optimizeQuality; fill-rule:evenodd; clip-rule:evenodd" viewBox="0 0 18019.86 18019.86" xmlns:xodm="http://www.corel.com/coreldraw/odm/2003"><metadata><rdf:RDF xmlns:rdf="http://www.w3.org/1999/02/22-rdf-syntax-ns#" xmlns:dc="http://purl.org/dc/elements/1.1/"><rdf:Description><dc:creator>RealFaviconGenerator</dc:creator><dc:source>https://realfavicongenerator.net</dc:source></rdf:Description></rdf:RDF></metadata><defs>
  <style type="text/css">
   
    .str0 {}
    .fil0 {fill:#0D1B2A}
    .fil1 {fill:#CBCAC8;fill-rule:nonzero}
   
  </style>
 </defs><g id="Layer_x0020_1">
  <metadata id="CorelCorpID_0Corel-Layer"></metadata>
  <rect class="fil0" x="10" y="10" width="17999.86" height="17999.86" rx="1319.01" ry="1499.99"></rect>
  <g id="_2199471845648">
   <path class="fil1" d="M4853 9674.69c2542.9,0 4344.34,-447.54 4344.34,-2582.36 0,-2135.03 -1801.44,-2582.37 -4344.34,-2582.37l-3232.64 0 0 217.23c562.1,0 919.84,677.65 919.84,1470.26l0 5560.94c0,869.31 -306.62,1534.08 -843.34,1534.08l0 217.43 4203.83 0 0 -217.43c-549.22,0 -1507.71,-89.39 -1507.71,-1534.08l0 -2083.69 460.03 0zm-460.03 -4947.5l460.03 0c1252.22,0 2248.77,89.59 2248.77,2365.14 0,2262.66 -996.55,2364.93 -2248.77,2364.93l-460.03 0 0 -4730.07z"></path>
   <path class="fil1" d="M15326.05 12359.33c0,0 -114.75,-332.39 -3245.52,-7849.37l-217.03 0 -2210.72 5829.49c-1252.23,3029.71 -1571.53,2927.44 -1903.71,2953.01l0 217.43 3143.26 0 0 -217.43c-2018.86,102.27 -1226.66,-2301.12 -1226.66,-2301.12l3028.3 0 383.32 933.33c0,0 664.36,1367.79 -332.19,1367.79l0 217.43 3654.41 0 0 -217.43c-332.18,-25.57 -639,89.59 -1073.45,-933.13zm-5622.14 -1585.22l1392.95 -3732.92 1520.39 3732.92 -2913.34 0z"></path>
  </g>
 </g></svg>