<svg xmlns="http://www.w3.org/2000/svg" xml:space="preserve" class="logo-img" version="1.1" style="shape-rendering:geometricPrecision; text-rendering:geometricPrecision; image-rendering:optimizeQuality; fill-rule:evenodd; clip-rule:evenodd"
viewBox="0 0 12800.39 4384.88"
 xmlns:xlink="http://www.w3.org/1999/xlink"
 xmlns:xodm="http://www.corel.com/coreldraw/odm/2003"><rect width="12800.39" height="4384.88" fill="rgba(13,27,42,0.7)"/>
 <defs>
  <style type="text/css">
   <![CDATA[
    .fil0 {fill:#CBCAC8}
    .fil1 {fill:#CBCAC8;fill-rule:nonzero}
   ]]>
</style>
 </defs>
 <g id="Layer_x0020_1">
  <metadata id="CorelCorpID_0Corel-Layer"/>
  <g id="_1542412931440">
   <polygon class="fil0" points="7422.01,459.3 7495.62,459.3 7495.62,3925.6 7422.01,3925.6 "/>
   <path class="fil0" d="M-0 0l12800.39 0 0 4384.88 -12800.39 0 0 -4384.88zm12646.89 4227.42l-12489.43 0 0 -4069.96 12489.43 0 0 4069.96z"/>
   <path class="fil1" d="M1234.92 1415.07c375.81,0 642.04,-66.14 642.04,-381.64 0,-315.54 -266.24,-381.64 -642.04,-381.64l-477.75 0 0 32.1c83.06,0 135.94,100.15 135.94,217.29l0 821.85c0,128.48 -45.31,226.72 -124.64,226.72l0 32.13 621.28 0 0 -32.13c-81.17,0 -222.82,-13.21 -222.82,-226.72l0 -307.95 67.98 0zm-67.98 -731.18l67.98 0c185.07,0 332.34,13.24 332.34,349.54 0,334.4 -147.27,349.51 -332.34,349.51l-67.98 0 0 -699.06z"/>
   <path class="fil1" d="M2699.79 617.73c-415.45,0 -651.48,317.41 -651.48,691.5 0,376 236.03,672.64 651.48,672.64 415.45,0 651.54,-296.64 651.54,-672.64 0,-374.09 -236.09,-691.5 -651.54,-691.5zm0 1332.01c-224.7,0 -328.57,-120.93 -328.57,-640.51 0,-517.67 103.88,-659.36 328.57,-659.36 222.85,0 324.82,141.69 324.82,659.36 0,519.58 -101.97,640.51 -324.82,640.51z"/>
   <path class="fil1" d="M4547.3 1764.59c-92.5,-340.08 -243.59,-423.22 -366.35,-409.97 224.75,-26.46 368.25,-111.49 368.25,-341.99 0,-315.5 -264.37,-360.84 -640.17,-360.84l-468.35 0 0 32.1c83.1,0 135.98,51.02 135.98,168.16l0 901.2c0,128.48 -54.75,196.5 -135.98,196.5l0 32.13 549.55 0 0 -32.13c-79.29,0 -139.72,-68.02 -139.72,-196.5l0 -377.87 88.72 0c0,0 173.73,0 236.06,194.62 132.19,409.97 83.1,409.97 419.23,411.88l173.77 0 0 -32.13c-49.13,-3.78 -183.2,-41.56 -220.99,-185.16zm-638.27 -421.31l-58.52 0 0 -659.39 58.52 0c183.19,0 332.35,0 332.35,328.74 0,328.74 -149.16,330.65 -332.35,330.65z"/>
   <path class="fil1" d="M6994.13 1811.83c0,0 -16.96,-49.12 -479.66,-1160.05l-32.08 0 -326.72 861.53c-185.07,447.76 -232.25,432.65 -281.35,436.43l0 32.13 464.54 0 0 -32.13c-298.36,15.12 -181.28,-340.08 -181.28,-340.08l447.55 0 56.64 137.94c0,0 98.19,202.14 -49.09,202.14l0 32.13 540.09 0 0 -32.13c-49.1,-3.78 -94.44,13.24 -158.65,-137.91zm-830.9 -234.27l205.87 -551.7 224.7 551.7 -430.57 0z"/>
   <path class="fil1" d="M4700.24 651.78l0 379.74 32.1 0c15.1,-338.17 415.44,-347.63 415.44,-347.63l35.89 0 0 1069.36c0,128.48 -81.21,196.5 -160.53,196.5l0 32.13 594.86 0 0 -32.13c-79.29,0 -160.52,-68.02 -160.52,-196.5l0 -1069.36 35.89 0c0,0 402.23,9.46 417.34,347.63l32.1 0 0 -379.74 -1242.59 0z"/>
   <path class="fil1" d="M1797.67 3560.33c0,0 -16.99,-49.13 -479.68,-1160.06l-32.08 0 -326.73 861.54c-185.06,447.76 -232.25,432.64 -281.34,436.42l0 32.14 464.54 0 0 -32.14c-298.36,15.12 -181.29,-340.08 -181.29,-340.08l447.55 0 56.65 137.94c0,0 98.18,202.14 -49.1,202.14l0 32.14 540.09 0 0 -32.14c-49.09,-3.78 -94.4,13.25 -158.61,-137.9zm-830.92 -234.29l205.86 -551.68 224.7 551.68 -430.55 0z"/>
   <path class="fil1" d="M2553.47 2400.27l-498.55 0 0 32.1c83.1,0 141.62,111.49 141.62,228.63l0 810.51c0,128.48 -60.43,226.72 -141.62,226.72l0 32.14 498.55 0c375.78,0 791.23,-107.72 791.23,-659.4 0,-553.57 -415.45,-670.7 -791.23,-670.7zm0 1297.96l-83.11 0 0 -1265.86 83.11 0c185.06,0 460.75,49.13 460.75,638.6 0,587.6 -275.69,627.26 -460.75,627.26z"/>
   <path class="fil1" d="M4547.3 3513.07c-92.5,-340.08 -243.59,-423.21 -366.35,-409.97 224.75,-26.45 368.25,-111.48 368.25,-341.98 0,-315.52 -264.37,-360.86 -640.17,-360.86l-468.35 0 0 32.1c83.1,0 135.98,51.02 135.98,168.17l0 901.2c0,128.48 -54.75,196.49 -135.98,196.49l0 32.14 549.55 0 0 -32.14c-79.29,0 -139.72,-68.01 -139.72,-196.49l0 -377.87 88.72 0c0,0 173.73,0 236.06,194.62 132.19,409.97 83.1,409.97 419.23,411.88l173.77 0 0 -32.14c-49.13,-3.78 -183.2,-41.56 -220.99,-185.16zm-638.27 -421.3l-58.52 0 0 -659.4 58.52 0c183.19,0 332.35,0 332.35,328.75 0,328.74 -149.16,330.65 -332.35,330.65z"/>
   <path class="fil1" d="M6994.13 3560.33c0,0 -16.96,-49.13 -479.66,-1160.06l-32.08 0 -326.72 861.54c-185.07,447.76 -232.25,432.64 -281.35,436.42l0 32.14 464.54 0 0 -32.14c-298.36,15.12 -181.28,-340.08 -181.28,-340.08l447.55 0 56.64 137.94c0,0 98.19,202.14 -49.09,202.14l0 32.14 540.09 0 0 -32.14c-49.1,-3.78 -94.44,13.25 -158.65,-137.9zm-830.9 -234.29l205.87 -551.68 224.7 551.68 -430.57 0z"/>
   <path class="fil1" d="M5024.13 2400.27l0 32.1c83.1,0 160.49,51.02 160.49,168.17l0 901.2c0,128.48 -79.29,196.49 -160.49,196.49l0 32.14 594.83 0 0 -32.14c-79.3,0 -160.49,-68.01 -160.49,-196.49l0 -901.2c0,-117.15 79.32,-168.17 160.49,-168.17l0 -32.1 -594.83 0z"/>
   <path class="fil1" d="M8446.79 1346.28c-56.56,-207.83 -148.86,-258.62 -223.89,-250.55 137.34,-16.15 225.04,-68.1 225.04,-208.95 0,-192.84 -161.55,-220.54 -391.22,-220.54l-286.2 0 0 19.61c50.79,0 83.1,31.18 83.1,102.77l0 550.72c0,78.53 -33.47,120.09 -83.1,120.09l0 19.64 335.83 0 0 -19.64c-48.48,0 -85.43,-41.56 -85.43,-120.09l0 -230.91 54.25 0c0,0 106.19,0 144.27,118.92 80.78,250.55 50.79,250.55 256.2,251.72l106.17 0 0 -19.64c-29.99,-2.29 -111.93,-25.38 -135.02,-113.16zm-390.07 -257.45l-35.8 0 0 -402.98 35.8 0c111.97,0 203.09,0 203.09,200.93 0,200.89 -91.13,202.05 -203.09,202.05zm723.59 93.52c0,-110.86 47.31,-227.48 115.42,-227.48 63.46,0 110.77,81.97 110.77,227.48l-226.2 0zm121.19 -247.11c-159.28,0 -270.08,116.64 -270.08,279.42 0,135.11 103.9,274.8 255.05,274.8 154.65,0 222.77,-91.19 241.21,-151.24l-19.61 -10.41c-28.85,54.26 -121.18,77.35 -183.48,63.52 -77.34,-17.32 -135.06,-76.2 -144.29,-189.34l366.99 0c0,-180.13 -78.49,-266.75 -245.79,-266.75zm639.3 424.91c-10.34,27.7 -36.92,58.88 -76.14,58.88 -75.04,0 -75.04,-76.2 -75.04,-76.2 0,-58.88 38.08,-113.14 151.17,-138.55 0,0 0,153.55 0,155.87zm200.81 58.88c-56.53,0 -55.4,-80.81 -55.4,-80.81l0 -172.04c0,-136.26 -41.54,-230.94 -192.71,-230.94 0,0 -60.02,-4.61 -111.94,23.09 -63.49,33.5 -78.49,64.68 -90,84.29 -11.55,19.64 -10.42,47.34 3.42,69.3 20.8,30.02 61.17,36.92 91.2,17.31 29.99,-20.79 38.04,-61.2 17.31,-91.22 -10.38,-15 -25.41,-23.09 -42.73,-25.41 -8.05,-1.14 -3.44,-20.78 33.47,-39.25 79.66,-41.56 146.56,18.47 146.56,138.56l0 71.58c-201.93,50.79 -298.9,62.34 -298.9,188.19 0,117.76 132.74,117.76 132.74,117.76 81.94,0 150.05,-42.73 167.33,-93.52 12.67,93.52 115.42,93.52 115.42,93.52 72.68,0 125.79,-45.02 135.02,-81.97l-19.61 -8.09c-6.94,19.64 -31.18,19.64 -31.18,19.64zm289.67 -79.68l0 -721.61 -201.93 42.73 0 19.61c46.15,17.32 57.69,34.64 57.69,75.07l0 584.2c0,58.92 -2.33,107.38 -46.15,120.09l0 19.64 236.56 0 0 -19.64c-40.41,-10.38 -46.18,-56.56 -46.18,-120.09zm-1620.27 1008.47c-48.48,232.08 -354.3,232.08 -354.3,232.08l-41.56 0 0 -381.03 41.56 0c0,0 175.42,0 186.96,120.08l19.61 0 0 -259.77 -19.61 0c-11.55,120.08 -186.96,120.08 -186.96,120.08l-41.56 0 0 -372.95 41.56 0c0,0 312.76,0 339.27,199.76l19.64 0 0 -219.37 -634.73 0 0 19.61c50.77,0 66.95,68.14 66.95,139.72l0 495.34c0,78.49 -18.47,138.54 -66.95,138.54l0 19.64 649.76 0 0 -251.72 -19.64 0zm441.98 -47.34l-116.55 -72.74c-100.42,-63.5 -68.1,-152.4 6.91,-152.4 118.89,0 155.78,103.93 170.81,144.34l19.61 0 0 -129.31c0,0 -57.73,-34.66 -190.42,-34.66 -115.42,0 -159.28,57.76 -159.28,57.76 -63.46,83.13 -33.45,176.65 78.49,244.78l116.57 70.43c87.68,57.72 73.85,161.64 -8.09,161.64 -135.03,0 -171.95,-133.94 -189.27,-178.96l-19.64 0 0 145.46c0,0 69.24,53.11 208.9,53.11 117.7,0 161.55,-62.34 161.55,-62.34 57.69,-83.13 23.09,-183.57 -79.62,-247.1zm473.17 227.46c-57.69,0 -85.42,-33.47 -85.42,-98.13l0 -344.1 132.73 0 4.61 -19.6 -137.34 0 0 -178.98 -144.25 24.26 0 154.72 -61.15 0 3.46 19.6 57.69 0 0 347.56c0,139.69 54.24,176.65 145.4,176.65 77.34,0 147.73,-57.73 170.82,-111.99l-17.32 -10.38c-10.38,17.31 -35.79,40.4 -69.24,40.4zm444.31 -47.34c-10.39,27.7 -36.95,58.88 -76.18,58.88 -75.04,0 -75.04,-76.2 -75.04,-76.2 0,-58.88 38.12,-113.16 151.21,-138.56 0,0 0,153.57 0,155.88zm200.77 58.88c-56.54,0 -55.4,-80.81 -55.4,-80.81l0 -172.04c0,-136.27 -41.54,-230.94 -192.71,-230.94 0,0 -60.02,-4.61 -111.94,23.09 -63.49,33.5 -78.45,64.68 -90,84.29 -11.55,19.64 -10.42,47.34 3.44,69.29 20.78,30.03 61.17,36.93 91.16,17.32 30.03,-20.8 38.09,-61.2 17.32,-91.22 -10.38,-15 -25.41,-23.09 -42.69,-25.42 -8.1,-1.13 -3.46,-20.76 33.43,-39.23 79.66,-41.58 146.6,18.47 146.6,138.55l0 71.59c-201.96,50.79 -298.9,62.34 -298.9,188.19 0,117.76 132.69,117.76 132.69,117.76 81.95,0 150.05,-42.73 167.37,-93.52 12.65,93.52 115.38,93.52 115.38,93.52 72.72,0 125.8,-45.02 135.06,-81.97l-19.64 -8.09c-6.94,19.64 -31.18,19.64 -31.18,19.64zm371.62 -11.55c-57.69,0 -85.39,-33.47 -85.39,-98.13l0 -344.1 132.73 0 4.61 -19.6 -137.34 0 0 -178.98 -144.27 24.26 0 154.72 -61.15 0 3.46 19.6 57.69 0 0 347.56c0,139.69 54.24,176.65 145.43,176.65 77.3,0 147.7,-57.73 170.78,-111.99l-17.31 -10.38c-10.39,17.31 -35.76,40.4 -69.24,40.4zm288.52 -225.15c0,-110.86 47.3,-227.46 115.41,-227.46 63.46,0 110.77,81.97 110.77,227.46l-226.18 0zm121.18 -247.1c-159.3,0 -270.08,116.64 -270.08,279.42 0,135.11 103.88,274.8 255.05,274.8 154.63,0 222.74,-91.19 241.21,-151.24l-19.64 -10.42c-28.83,54.27 -121.18,77.37 -183.49,63.53 -77.3,-17.32 -135.04,-76.2 -144.23,-189.36l366.97 0c0,-180.13 -78.49,-266.73 -245.79,-266.73zm-2522.77 1228.99l-177.72 -117.76c-150.05,-98.15 -105.03,-250.55 19.61,-250.55 184.66,0 255.05,168.58 276.97,229.75l19.64 0 0 -193.95c0,0 -99.25,-55.44 -296.61,-55.44 -182.33,0 -238.88,87.77 -238.88,87.77 -95.79,125.83 -34.61,241.3 129.25,344.07l177.72 111.99c140.82,102.76 102.74,270.19 -20.75,270.19 -205.45,0 -271.2,-203.22 -296.57,-273.65l-19.64 0 0 221.66c0,0 92.32,71.59 316.21,71.59 185.81,0 240.06,-94.68 240.06,-94.68 86.52,-125.85 23.05,-250.55 -129.28,-351zm421.22 138.56c0,-110.86 47.31,-227.46 115.41,-227.46 63.46,0 110.77,81.97 110.77,227.46l-226.18 0zm121.18 -247.1c-159.26,0 -270.06,116.62 -270.06,279.41 0,135.11 103.89,274.81 255.04,274.81 154.67,0 222.77,-91.2 241.21,-151.24l-19.6 -10.42c-28.86,54.27 -121.19,77.37 -183.49,63.53 -77.33,-17.32 -135.06,-76.2 -144.27,-189.36l366.97 0c0,-180.13 -78.49,-266.73 -245.79,-266.73zm648.53 5.77c-27.66,11.55 -74.97,28.89 -136.14,124.69l0 -130.46 -203.13 46.21 0 19.6c47.31,24.26 57.73,41.58 57.73,80.85l0 256.33c0,60.03 -1.16,107.37 -46.18,121.21l0 19.64 238.89 0 0 -19.64c-41.54,-11.55 -47.31,-56.55 -47.31,-121.21l0 -240.17c42.7,-69.26 90,-80.81 90,-68.14 0,20.8 9.23,40.44 26.57,56.59 36.89,31.18 89.97,26.54 121.16,-9.23 31.16,-34.65 27.7,-90.06 -8.06,-121.23 -25.41,-20.8 -69.26,-25.42 -93.52,-15.03zm542.2 4.63l0 19.61c125.78,0 54.21,174.35 54.21,174.35l-63.46 157.04 -114.24 -244.78c0,0 -42.7,-86.61 21.95,-86.61l0 -19.61 -272.39 0 0 19.61c20.8,0 50.79,0 78.49,61.2 0,0 10.38,19.64 214.64,463l18.48 0 137.34 -345.24c71.17,-178.9 123.47,-178.96 150.02,-178.96l0 -19.61 -225.03 0zm485.61 -181.28c0,-43.89 -35.79,-78.52 -79.62,-78.52 -43.85,0 -78.49,34.63 -78.49,78.52 0,43.88 34.64,78.52 78.49,78.52 43.83,0 79.62,-34.64 79.62,-78.52zm3.48 573.85l0 -402.98 -201.96 46.21 0 19.6c47.31,25.41 58.86,41.69 58.86,80.85l0 256.33c0,58.75 -2.33,107.37 -46.18,121.21l0 19.64 236.6 0 0 -19.64c-41.56,-11.55 -47.31,-56.55 -47.31,-121.21zm550.97 -8.1c-26.56,38.12 -117.76,69.28 -175.45,56.59 -79.58,-17.34 -146.53,-72.74 -146.53,-197.43 0,-198.61 111.93,-234.4 153.46,-234.4 46.17,0 71.55,19.64 61.17,24.24 -17.28,9.23 -31.16,24.26 -35.76,46.18 -11.55,40.4 12.71,83.13 54.24,93.55 41.54,11.55 83.11,-15.03 94.62,-55.44 8.06,-27.73 -3.46,-60.03 -23.05,-77.35 -19.64,-17.32 -69.28,-50.82 -151.21,-50.82 -197.33,0 -298.9,142.03 -298.9,274.8 0,135.11 102.74,279.42 253.91,279.42 144.25,0 213.51,-90.06 229.64,-148.95l-16.13 -10.39zm248.12 -147.78c0,-110.86 47.31,-227.46 115.41,-227.46 63.46,0 110.77,81.97 110.77,227.46l-226.18 0zm121.18 -247.1c-159.3,0 -270.08,116.62 -270.08,279.41 0,135.11 103.88,274.81 255.05,274.81 154.63,0 222.74,-91.2 241.21,-151.24l-19.64 -10.42c-28.83,54.27 -121.18,77.37 -183.48,63.53 -77.34,-17.32 -135.06,-76.2 -144.25,-189.36l366.97 0c0,-180.13 -78.49,-266.73 -245.79,-266.73zm642.76 244.78l-116.53 -72.76c-100.39,-63.49 -68.11,-152.39 6.93,-152.39 118.86,0 155.77,103.93 170.78,144.34l19.65 0 0 -129.31c0,0 -57.73,-34.66 -190.43,-34.66 -115.41,0 -159.3,57.74 -159.3,57.74 -63.46,83.14 -33.43,176.65 78.49,244.78l116.57 70.43c87.72,57.73 73.85,161.66 -8.09,161.66 -134.99,0 -171.95,-133.96 -189.27,-178.98l-19.6 0 0 145.46c0,0 69.24,53.12 208.86,53.12 117.7,0 161.59,-62.34 161.59,-62.34 57.69,-83.13 23.05,-183.58 -79.66,-247.1z"/>
  </g>
 </g>
</svg>
